# xmcd
# Track frame offsets:
# 150
# 14085
# 31527
# 49485
# 71365
# 92802
# 108737
# 122905
# 137890
# 158765
# 177500
# 200857
# 214680
# 230950
# 245075
# 254842
# 271775
# 295602
# 308825
# 321772
#
# Disc length: 4471 seconds
# Revision: 6
# Processed by: cddbd v1.4PL0 Copyright (c) Steve Scherf et al.
# Submitted via: VisiTrax 2.9.5.181 - For more info visit www.synapsa.com
#
DISCID=3b117514
DTITLE=John Denver - Favourites
DYEAR=1992
DGENRE=Country
TTITLE0=Thank God I'm A Country Boy
TTITLE1=Some Days Are Diamonds
TTITLE2=Leaving On A Jet Plane
TTITLE3=My Sweet Lady
TTITLE4=Back Home Again
TTITLE5=I'm Sorry
TTITLE6=(Take Me Home) Country Roads
TTITLE7=For You
TTITLE8=Rocky Mountain High
TTITLE9=Fly Away
TTITLE10=Sunshine On My Shoulders
TTITLE11=This Old Guitar
TTITLE12=Calipso
TTITLE13=Shanghai Breezes
TTITLE14=Grandma's Feather Bed
TTITLE15=Seasons Of The Heart
TTITLE16=Sweet Surrender
TTITLE17=Perhaps Love
TTITLE18=Follow Me
TTITLE19=Annie's Song
EXTD=ID3G:   2\nOlivia Newton-John and Placido Domingo
EXTT0=
EXTT1=
EXTT2=
EXTT3=
EXTT4=
EXTT5=
EXTT6=
EXTT7=
EXTT8=
EXTT9=
EXTT10=
EXTT11=
EXTT12=
EXTT13=
EXTT14=
EXTT15=
EXTT16=
EXTT17=
EXTT18=
EXTT19=
PLAYORDER=
